<svg xmlns="http://www.w3.org/2000/svg" viewBox="0 0 489.2 138.9">
  <defs>
    <style>.a{fill:#ffffff;}</style>
  </defs>
  <title>word-logo</title>
  <path class="a"
        d="M113.26,1.26H114q8.3,0,10.84,8.43a16.61,16.61,0,0,1,.68,4.71q-1,4.83-4.52,4.83T116.11,13c-.24-.41-.35-.62-.31-.62h-1.48a7.06,7.06,0,0,0-6.38,3.29q-3.78,4.28-5.58,13.75-1.67,2.18-1.8,13.51l9.3-4.34Q120.76,34,123.49,38c1.81,2.62,1.25,4.75-1.71,6.38a162.35,162.35,0,0,1-15.83,7L100.63,54q1.73,22.8,2.1,28.8,0,4.59-6,6.57H96q-5.15,0-7.06-32.46l-3.84.68c-3.72-1.16-5.58-3-5.58-5.45V52q0-5.88,10.16-5.88Q90.65,30.88,93,23q2.71-9.3,6-13.51Q106.13,1.27,113.26,1.26Z"/>
  <path class="a"
        d="M144.8,33.57q3.52.52,7.71,11.09a48.83,48.83,0,0,1,3.16,22.46q-1,11.89-8.18,16.95t-13.1,5q-10.78,0-14.19-10.28l-.43-3q1.61-17.46,6.29-26.76T136,36.39Q141.26,33,144.8,33.57ZM131.05,73.13c0,2.4.92,4.05,2.78,5a5.38,5.38,0,0,0,1.55.12c1.9,0,4.22-1.12,6.94-3.35s4.15-6.61,4.28-13.16-1-11.58-3.29-15.09a2.13,2.13,0,0,0-1.36-.49q-4.27,0-9.36,14.87A44.87,44.87,0,0,0,131.05,73.13Z"/>
  <path class="a"
        d="M184.57,33.57q3.54.52,7.72,11.09a48.83,48.83,0,0,1,3.16,22.46q-1,11.89-8.18,16.95t-13.1,5q-10.78,0-14.19-10.28l-.44-3q1.62-17.46,6.29-26.76t9.95-12.64Q181,33,184.57,33.57ZM170.82,73.13q0,3.6,2.79,5a5.33,5.33,0,0,0,1.55.12q2.85,0,6.94-3.35t4.27-13.16q.18-9.83-3.28-15.09a2.15,2.15,0,0,0-1.37-.49q-4.28,0-9.35,14.87A44.86,44.86,0,0,0,170.82,73.13Z"/>
  <path class="a"
        d="M219.21,15.67q4.39-6,8.3-5.05c2.6.62,3.9,2.72,3.9,6.32q0,4.45-3.59,4.95-3.28,3.11-5.08,12.52l3.65-1.55a28,28,0,0,1,7.07-1.3c3.09.33,4.1,2,3,4.92s-6.37,5.88-15.83,8.77c-.12,0-.25.39-.37,1.18a107.21,107.21,0,0,0-1.77,18.92q0,9.39,2.11,12a4.33,4.33,0,0,0,5,1.68,12.36,12.36,0,0,0,4.89-2.92,6.73,6.73,0,0,1,4.83-2q2.79,0,2.79,4.46-.43,3.17-4,7a19.57,19.57,0,0,1-13.38,4.59q-7.06-.37-10-6.29a36.81,36.81,0,0,1-3.44-14.28q-.5-8.37,1.74-23-13.45,1.19-13.82-4.4t15.18-5.45L213,28.58A38.27,38.27,0,0,1,219.21,15.67Z"/>
  <path class="a"
        d="M247.33,33.29c3,.42,4.62,1.87,4.81,4.37a49.14,49.14,0,0,1-1.09,11.25q-1.37,7.49-2.38,14.77t-2,11.56q-1,4.28,3.84,1.76t8-9.26q3.15-6.75,4.33-20.51,0-11.64,5-12.08h.31q6.45,0,6.44,5.58l-3.77,30.91q12.39-12.2,14.59-12.2c1.46,0,2.4,1.14,2.81,3.44s-1,5.31-4.33,9.07A84.44,84.44,0,0,1,271.74,83.1q.43,9.24.44,16.79,0,28-10.41,36.25c-2.69,1.44-4.81,2.17-6.38,2.17q-5.82,0-8.77-7.9a36.27,36.27,0,0,1-2.07-16.51,40.92,40.92,0,0,1,4.83-15.83,121.05,121.05,0,0,1,11.4-16.58q-13.87,7.94-19.3,6.2t-5.61-8.86q0-7.06,2.23-22.77T241,37A5.56,5.56,0,0,1,247.33,33.29Zm10.6,69.52a30.9,30.9,0,0,0-4.28,13.81q-.74,8.17,2.23,11.09.25,0,1.92-2.1,4.65-6.39,4.71-29.06Q261.46,97.17,257.93,102.81Z"/>
  <path class="a"
        d="M113.26,1.26H114q8.3,0,10.84,8.43a16.61,16.61,0,0,1,.68,4.71q-1,4.83-4.52,4.83T116.11,13c-.24-.41-.35-.62-.31-.62h-1.48a7.06,7.06,0,0,0-6.38,3.29q-3.78,4.28-5.58,13.75-1.67,2.18-1.8,13.51l9.3-4.34Q120.76,34,123.49,38c1.81,2.62,1.25,4.75-1.71,6.38a162.35,162.35,0,0,1-15.83,7L100.63,54q1.73,22.8,2.1,28.8,0,4.59-6,6.57H96q-5.15,0-7.06-32.46l-3.84.68c-3.72-1.16-5.58-3-5.58-5.45V52q0-5.88,10.16-5.88Q90.65,30.88,93,23q2.71-9.3,6-13.51Q106.13,1.27,113.26,1.26Z"/>
  <path class="a"
        d="M144.8,33.57q3.52.52,7.71,11.09a48.83,48.83,0,0,1,3.16,22.46q-1,11.89-8.18,16.95t-13.1,5q-10.78,0-14.19-10.28l-.43-3q1.61-17.46,6.29-26.76T136,36.39Q141.26,33,144.8,33.57ZM131.05,73.13c0,2.4.92,4.05,2.78,5a5.38,5.38,0,0,0,1.55.12c1.9,0,4.22-1.12,6.94-3.35s4.15-6.61,4.28-13.16-1-11.58-3.29-15.09a2.13,2.13,0,0,0-1.36-.49q-4.27,0-9.36,14.87A44.87,44.87,0,0,0,131.05,73.13Z"/>
  <path class="a"
        d="M184.57,33.57q3.54.52,7.72,11.09a48.83,48.83,0,0,1,3.16,22.46q-1,11.89-8.18,16.95t-13.1,5q-10.78,0-14.19-10.28l-.44-3q1.62-17.46,6.29-26.76t9.95-12.64Q181,33,184.57,33.57ZM170.82,73.13q0,3.6,2.79,5a5.33,5.33,0,0,0,1.55.12q2.85,0,6.94-3.35t4.27-13.16q.18-9.83-3.28-15.09a2.15,2.15,0,0,0-1.37-.49q-4.28,0-9.35,14.87A44.86,44.86,0,0,0,170.82,73.13Z"/>
  <path class="a"
        d="M219.21,15.67q4.39-6,8.3-5.05c2.6.62,3.9,2.72,3.9,6.32q0,4.45-3.59,4.95-3.28,3.11-5.08,12.52l3.65-1.55a28,28,0,0,1,7.07-1.3c3.09.33,4.1,2,3,4.92s-6.37,5.88-15.83,8.77c-.12,0-.25.39-.37,1.18a107.21,107.21,0,0,0-1.77,18.92q0,9.39,2.11,12a4.33,4.33,0,0,0,5,1.68,12.36,12.36,0,0,0,4.89-2.92,6.73,6.73,0,0,1,4.83-2q2.79,0,2.79,4.46-.43,3.17-4,7a19.57,19.57,0,0,1-13.38,4.59q-7.06-.37-10-6.29a36.81,36.81,0,0,1-3.44-14.28q-.5-8.37,1.74-23-13.45,1.19-13.82-4.4t15.18-5.45L213,28.58A38.27,38.27,0,0,1,219.21,15.67Z"/>
  <path class="a"
        d="M247.33,33.29c3,.42,4.62,1.87,4.81,4.37a49.14,49.14,0,0,1-1.09,11.25q-1.37,7.49-2.38,14.77t-2,11.56q-1,4.28,3.84,1.76t8-9.26q3.15-6.75,4.33-20.51,0-11.64,5-12.08h.31q6.45,0,6.44,5.58l-3.77,30.91q12.39-12.2,14.59-12.2c1.46,0,2.4,1.14,2.81,3.44s-1,5.31-4.33,9.07A84.44,84.44,0,0,1,271.74,83.1q.43,9.24.44,16.79,0,28-10.41,36.25c-2.69,1.44-4.81,2.17-6.38,2.17q-5.82,0-8.77-7.9a36.27,36.27,0,0,1-2.07-16.51,40.92,40.92,0,0,1,4.83-15.83,121.05,121.05,0,0,1,11.4-16.58q-13.87,7.94-19.3,6.2t-5.61-8.86q0-7.06,2.23-22.77T241,37A5.56,5.56,0,0,1,247.33,33.29Zm10.6,69.52a30.9,30.9,0,0,0-4.28,13.81q-.74,8.17,2.23,11.09.25,0,1.92-2.1,4.65-6.39,4.71-29.06Q261.46,97.17,257.93,102.81Z"/>
  <path class="a"
        d="M280.15,95.29V6h12.79V37.49h.25a15.43,15.43,0,0,1,5.08-4.83A13.2,13.2,0,0,1,305,31a13.38,13.38,0,0,1,7.2,1.63,13.75,13.75,0,0,1,4.21,4.14A12.85,12.85,0,0,1,318,42a98.81,98.81,0,0,1,.37,10.16v24.2a56.24,56.24,0,0,1-.5,8.4A17.32,17.32,0,0,1,316.26,90c-2.18,4-5.89,6-11.16,6-3.18,0-5.6-.62-7.27-1.88a31.4,31.4,0,0,1-4.89-4.64v5.77Zm25.45-44A10.32,10.32,0,0,0,304.29,46q-1.32-2.27-5-2.26a6,6,0,0,0-4.57,1.94,6.94,6.94,0,0,0-1.82,4.95V75.36a8.83,8.83,0,0,0,1.75,5.7,5.66,5.66,0,0,0,4.64,2.19,5.23,5.23,0,0,0,4.77-2.38,11.62,11.62,0,0,0,1.5-6.27Z"/>
  <path class="a"
        d="M327.79,53a47.75,47.75,0,0,1,.5-7.15,17,17,0,0,1,8.34-12.41,22.06,22.06,0,0,1,20.44,0,17.29,17.29,0,0,1,6.46,6.64,17.57,17.57,0,0,1,1.88,5.77,47.75,47.75,0,0,1,.5,7.15V74a47.61,47.61,0,0,1-.5,7.14,17,17,0,0,1-8.34,12.42,22.14,22.14,0,0,1-20.44,0,17.07,17.07,0,0,1-8.34-12.42,47.61,47.61,0,0,1-.5-7.14ZM340.58,76a7.75,7.75,0,0,0,1.7,5.46,6.69,6.69,0,0,0,9.15,0q1.69-1.81,1.69-5.46V51q0-3.63-1.69-5.45a6.66,6.66,0,0,0-9.15,0,7.74,7.74,0,0,0-1.7,5.45Z"/>
  <path class="a"
        d="M375.31,31.72V12.41H388.1V31.72H396v10h-7.9V77a11.16,11.16,0,0,0,.44,3.51A3.49,3.49,0,0,0,390,82.38a5.4,5.4,0,0,0,2.45.75q1.44.12,3.57.12v12h-5.26a17.26,17.26,0,0,1-7.34-1.38,13.27,13.27,0,0,1-4.7-3.51,13.72,13.72,0,0,1-2.57-4.83,17.69,17.69,0,0,1-.82-5.2V41.75h-6.39v-10Z"/>
  <path class="a"
        d="M280.15,95.29V6h12.79V37.49h.25a15.43,15.43,0,0,1,5.08-4.83A13.2,13.2,0,0,1,305,31a13.38,13.38,0,0,1,7.2,1.63,13.75,13.75,0,0,1,4.21,4.14A12.85,12.85,0,0,1,318,42a98.81,98.81,0,0,1,.37,10.16v24.2a56.24,56.24,0,0,1-.5,8.4A17.32,17.32,0,0,1,316.26,90c-2.18,4-5.89,6-11.16,6-3.18,0-5.6-.62-7.27-1.88a31.4,31.4,0,0,1-4.89-4.64v5.77Zm25.45-44A10.32,10.32,0,0,0,304.29,46q-1.32-2.27-5-2.26a6,6,0,0,0-4.57,1.94,6.94,6.94,0,0,0-1.82,4.95V75.36a8.83,8.83,0,0,0,1.75,5.7,5.66,5.66,0,0,0,4.64,2.19,5.23,5.23,0,0,0,4.77-2.38,11.62,11.62,0,0,0,1.5-6.27Z"/>
  <path class="a"
        d="M327.79,53a47.75,47.75,0,0,1,.5-7.15,17,17,0,0,1,8.34-12.41,22.06,22.06,0,0,1,20.44,0,17.29,17.29,0,0,1,6.46,6.64,17.57,17.57,0,0,1,1.88,5.77,47.75,47.75,0,0,1,.5,7.15V74a47.61,47.61,0,0,1-.5,7.14,17,17,0,0,1-8.34,12.42,22.14,22.14,0,0,1-20.44,0,17.07,17.07,0,0,1-8.34-12.42,47.61,47.61,0,0,1-.5-7.14ZM340.58,76a7.75,7.75,0,0,0,1.7,5.46,6.69,6.69,0,0,0,9.15,0q1.69-1.81,1.69-5.46V51q0-3.63-1.69-5.45a6.66,6.66,0,0,0-9.15,0,7.74,7.74,0,0,0-1.7,5.45Z"/>
  <path class="a"
        d="M375.31,31.72V12.41H388.1V31.72H396v10h-7.9V77a11.16,11.16,0,0,0,.44,3.51A3.49,3.49,0,0,0,390,82.38a5.4,5.4,0,0,0,2.45.75q1.44.12,3.57.12v12h-5.26a17.26,17.26,0,0,1-7.34-1.38,13.27,13.27,0,0,1-4.7-3.51,13.72,13.72,0,0,1-2.57-4.83,17.69,17.69,0,0,1-.82-5.2V41.75h-6.39v-10Z"/>
</svg>
